<mxfile host="65bd71144e">
    <diagram id="j2w1cs41qs-01vKSz9DP" name="Page-1">
        <mxGraphModel dx="2142" dy="2098" grid="1" gridSize="10" guides="1" tooltips="1" connect="1" arrows="1" fold="1" page="1" pageScale="1" pageWidth="827" pageHeight="1169" math="0" shadow="0">
            <root>
                <mxCell id="0"/>
                <mxCell id="1" parent="0"/>
                <mxCell id="6" style="edgeStyle=none;html=1;startArrow=none;fillColor=#f9f7ed;strokeColor=#FFFFFF;" parent="1" source="12" edge="1">
                    <mxGeometry relative="1" as="geometry">
                        <mxPoint x="414" y="310" as="targetPoint"/>
                        <mxPoint x="414" y="190" as="sourcePoint"/>
                        <Array as="points">
                            <mxPoint x="414" y="230"/>
                        </Array>
                    </mxGeometry>
                </mxCell>
                <mxCell id="9" style="edgeStyle=none;html=1;exitX=1;exitY=0.5;exitDx=0;exitDy=0;startArrow=none;" parent="1" source="14" edge="1">
                    <mxGeometry relative="1" as="geometry">
                        <mxPoint x="720" y="90" as="targetPoint"/>
                        <Array as="points">
                            <mxPoint x="600" y="90"/>
                        </Array>
                    </mxGeometry>
                </mxCell>
                <mxCell id="33" style="edgeStyle=none;html=1;" parent="1" source="5" edge="1">
                    <mxGeometry relative="1" as="geometry">
                        <mxPoint x="414" y="10" as="targetPoint"/>
                    </mxGeometry>
                </mxCell>
                <mxCell id="5" value="&lt;span&gt;Vous &lt;/span&gt;&lt;span&gt;êtes&lt;/span&gt;&lt;span&gt; le &lt;/span&gt;&lt;span&gt;Héros&lt;/span&gt;&lt;span&gt; dans un monde apocalyptique &lt;/span&gt;&lt;span&gt;infesté&lt;/span&gt;&lt;span&gt; de zombie et votre camp manque de nourriture et de médicament&lt;/span&gt;" style="rhombus;whiteSpace=wrap;html=1;fontFamily=Helvetica;fontSize=12;fontColor=#ffffff;align=center;strokeColor=#A50040;fillColor=#d80073;spacingLeft=40;spacingRight=40;" parent="1" vertex="1">
                    <mxGeometry x="284" y="-30" width="258" height="165" as="geometry"/>
                </mxCell>
                <mxCell id="8" value="" style="edgeStyle=none;html=1;endArrow=none;" parent="1" source="5" edge="1">
                    <mxGeometry relative="1" as="geometry">
                        <mxPoint x="414" y="190" as="targetPoint"/>
                        <mxPoint x="413.9999999999998" y="140" as="sourcePoint"/>
                        <Array as="points"/>
                    </mxGeometry>
                </mxCell>
                <mxCell id="12" value="&lt;span&gt;Vous décider d'aller en chercher&lt;br&gt;seul&lt;br&gt;&lt;/span&gt;" style="text;html=1;align=center;verticalAlign=middle;whiteSpace=wrap;rounded=0;fontColor=#FFCCE6;" parent="1" vertex="1">
                    <mxGeometry x="302" y="180" width="226" height="50" as="geometry"/>
                </mxCell>
                <mxCell id="13" value="" style="edgeStyle=none;html=1;startArrow=none;endArrow=none;" parent="1" target="12" edge="1">
                    <mxGeometry relative="1" as="geometry">
                        <mxPoint x="414" y="310" as="targetPoint"/>
                        <mxPoint x="414" y="190" as="sourcePoint"/>
                        <Array as="points"/>
                    </mxGeometry>
                </mxCell>
                <mxCell id="14" value="Vous ne faite rien" style="text;html=1;strokeColor=none;fillColor=none;align=center;verticalAlign=middle;whiteSpace=wrap;rounded=0;fontColor=#FFCCE6;" parent="1" vertex="1">
                    <mxGeometry x="560" y="75" width="60" height="30" as="geometry"/>
                </mxCell>
                <mxCell id="15" value="" style="edgeStyle=none;html=1;exitX=1;exitY=0.5;exitDx=0;exitDy=0;endArrow=none;" parent="1" source="5" target="14" edge="1">
                    <mxGeometry relative="1" as="geometry">
                        <mxPoint x="680" y="90" as="targetPoint"/>
                        <mxPoint x="524" y="90" as="sourcePoint"/>
                        <Array as="points"/>
                    </mxGeometry>
                </mxCell>
                <mxCell id="26" style="edgeStyle=none;html=1;exitX=0.5;exitY=0;exitDx=0;exitDy=0;entryX=0.5;entryY=0;entryDx=0;entryDy=0;" parent="1" source="17" target="17" edge="1">
                    <mxGeometry relative="1" as="geometry">
                        <mxPoint x="780.294117647059" y="19.999999999999886" as="targetPoint"/>
                    </mxGeometry>
                </mxCell>
                <mxCell id="27" style="edgeStyle=none;html=1;" parent="1" source="17" edge="1">
                    <mxGeometry relative="1" as="geometry">
                        <mxPoint x="780" y="10" as="targetPoint"/>
                        <Array as="points">
                            <mxPoint x="780" y="40"/>
                            <mxPoint x="780" y="105"/>
                            <mxPoint x="780" y="30"/>
                            <mxPoint x="780" y="20"/>
                        </Array>
                    </mxGeometry>
                </mxCell>
                <mxCell id="17" value="Le campement meurt de faim.&lt;br&gt;FIN" style="rounded=0;whiteSpace=wrap;html=1;strokeColor=#2D7600;fillColor=#60a917;fontColor=#ffffff;" parent="1" vertex="1">
                    <mxGeometry x="720" y="75" width="120" height="60" as="geometry"/>
                </mxCell>
                <mxCell id="35" style="edgeStyle=none;html=1;exitX=0;exitY=0.5;exitDx=0;exitDy=0;startArrow=none;" parent="1" source="36" edge="1">
                    <mxGeometry relative="1" as="geometry">
                        <mxPoint x="140" y="434" as="targetPoint"/>
                    </mxGeometry>
                </mxCell>
                <mxCell id="41" style="edgeStyle=none;html=1;startArrow=none;" parent="1" source="42" edge="1">
                    <mxGeometry relative="1" as="geometry">
                        <mxPoint x="410" y="760" as="targetPoint"/>
                    </mxGeometry>
                </mxCell>
                <mxCell id="25" value="Durant votre expédition vous trouvez un survivant qui a besoin d'aide" style="rhombus;whiteSpace=wrap;html=1;strokeColor=#A50040;fillColor=#d80073;fontColor=#ffffff;" parent="1" vertex="1">
                    <mxGeometry x="321.5" y="310" width="184" height="250" as="geometry"/>
                </mxCell>
                <mxCell id="31" value="" style="endArrow=classic;html=1;" parent="1" edge="1">
                    <mxGeometry width="50" height="50" relative="1" as="geometry">
                        <mxPoint x="760" y="10" as="sourcePoint"/>
                        <mxPoint x="480" y="10" as="targetPoint"/>
                        <Array as="points">
                            <mxPoint x="726" y="10"/>
                            <mxPoint x="780" y="10"/>
                            <mxPoint x="690" y="10"/>
                        </Array>
                    </mxGeometry>
                </mxCell>
                <mxCell id="36" value="Vous sauvez le survivant" style="text;html=1;strokeColor=none;fillColor=none;align=center;verticalAlign=middle;whiteSpace=wrap;rounded=0;fontColor=#FFCCE6;" parent="1" vertex="1">
                    <mxGeometry x="200" y="420" width="60" height="30" as="geometry"/>
                </mxCell>
                <mxCell id="37" value="" style="edgeStyle=none;html=1;exitX=0;exitY=0.5;exitDx=0;exitDy=0;endArrow=none;" parent="1" source="25" target="36" edge="1">
                    <mxGeometry relative="1" as="geometry">
                        <mxPoint x="110" y="434" as="targetPoint"/>
                        <mxPoint x="322" y="435" as="sourcePoint"/>
                    </mxGeometry>
                </mxCell>
                <mxCell id="39" style="edgeStyle=none;html=1;" parent="1" source="38" edge="1">
                    <mxGeometry relative="1" as="geometry">
                        <mxPoint x="80" y="50" as="targetPoint"/>
                    </mxGeometry>
                </mxCell>
                <mxCell id="38" value="&lt;span&gt;Le survivant vous &lt;/span&gt;&lt;span&gt;tue&lt;/span&gt;&lt;span&gt; et vous &lt;/span&gt;&lt;span&gt;utilise&lt;/span&gt;&lt;span&gt; comme &lt;/span&gt;&lt;span&gt;appât&lt;/span&gt;&lt;span&gt; pour passer &lt;/span&gt;&lt;span&gt;à travers&lt;/span&gt;&lt;span&gt; les zombies sans problème&lt;/span&gt;&lt;span&gt;&lt;br/&gt;&lt;/span&gt;&lt;span&gt;FIN&lt;/span&gt;" style="rounded=1;whiteSpace=wrap;html=1;strokeColor=#2D7600;fillColor=#60a917;fontColor=#ffffff;" parent="1" vertex="1">
                    <mxGeometry x="20" y="382.5" width="120" height="105" as="geometry"/>
                </mxCell>
                <mxCell id="40" value="" style="endArrow=classic;html=1;entryX=0;entryY=0.5;entryDx=0;entryDy=0;" parent="1" target="5" edge="1">
                    <mxGeometry width="50" height="50" relative="1" as="geometry">
                        <mxPoint x="80" y="53" as="sourcePoint"/>
                        <mxPoint x="260" y="70" as="targetPoint"/>
                        <Array as="points"/>
                    </mxGeometry>
                </mxCell>
                <mxCell id="42" value="Vous laisser le survivant mourrir" style="text;html=1;strokeColor=none;fillColor=none;align=center;verticalAlign=middle;whiteSpace=wrap;rounded=0;fontColor=#FFCCE6;" parent="1" vertex="1">
                    <mxGeometry x="380" y="600" width="60" height="65" as="geometry"/>
                </mxCell>
                <mxCell id="43" value="" style="edgeStyle=none;html=1;endArrow=none;" parent="1" source="25" target="42" edge="1">
                    <mxGeometry relative="1" as="geometry">
                        <mxPoint x="410" y="760" as="targetPoint"/>
                        <mxPoint x="412.48684210526335" y="557.9440789473683" as="sourcePoint"/>
                    </mxGeometry>
                </mxCell>
                <mxCell id="45" style="edgeStyle=none;html=1;" parent="1" source="44" edge="1">
                    <mxGeometry relative="1" as="geometry">
                        <mxPoint x="410" y="960" as="targetPoint"/>
                    </mxGeometry>
                </mxCell>
                <mxCell id="44" value="&lt;span&gt;Les zombies se régalent et vous pouvez passer sans problème.Il laisse une arme que vous &lt;/span&gt;&lt;span&gt;récupérez&lt;/span&gt;&lt;span&gt; pour pouvoir vous défendre(&lt;/span&gt;&lt;span&gt;vous&lt;/span&gt;&lt;span&gt; avez une arme&lt;/span&gt;&lt;span&gt;).&lt;/span&gt;" style="rounded=1;whiteSpace=wrap;html=1;strokeColor=#2D7600;fillColor=#60a917;fontColor=#ffffff;" parent="1" vertex="1">
                    <mxGeometry x="330" y="740" width="160" height="130" as="geometry"/>
                </mxCell>
                <mxCell id="47" style="edgeStyle=none;html=1;exitX=0.5;exitY=1;exitDx=0;exitDy=0;" parent="1" source="46" edge="1">
                    <mxGeometry relative="1" as="geometry">
                        <mxPoint x="410" y="1120" as="targetPoint"/>
                    </mxGeometry>
                </mxCell>
                <mxCell id="46" value="&lt;span&gt;Il y a une pharmacie  devant vous &lt;/span&gt;&lt;span&gt;garder&lt;/span&gt;&lt;span&gt; par un zombie coincer.Il semble avoir les clés sur  lui.&lt;/span&gt;" style="rounded=1;whiteSpace=wrap;html=1;strokeColor=#2D7600;fillColor=#60a917;fontColor=#ffffff;" parent="1" vertex="1">
                    <mxGeometry x="350" y="970" width="120" height="90" as="geometry"/>
                </mxCell>
                <mxCell id="49" style="edgeStyle=none;html=1;startArrow=none;entryX=0;entryY=0.5;entryDx=0;entryDy=0;" parent="1" source="52" target="55" edge="1">
                    <mxGeometry relative="1" as="geometry">
                        <mxPoint x="630" y="1190" as="targetPoint"/>
                    </mxGeometry>
                </mxCell>
                <mxCell id="58" style="edgeStyle=none;html=1;startArrow=none;" parent="1" source="60" edge="1">
                    <mxGeometry relative="1" as="geometry">
                        <mxPoint x="410" y="1440" as="targetPoint"/>
                    </mxGeometry>
                </mxCell>
                <mxCell id="48" value="Que faire?" style="rhombus;whiteSpace=wrap;html=1;strokeColor=#A50040;fillColor=#d80073;fontColor=#ffffff;" parent="1" vertex="1">
                    <mxGeometry x="350" y="1120" width="120" height="140" as="geometry"/>
                </mxCell>
                <mxCell id="52" value="Vous tirez sur le zombie" style="text;html=1;strokeColor=none;fillColor=none;align=center;verticalAlign=middle;whiteSpace=wrap;rounded=0;fontColor=#FFCCE6;" parent="1" vertex="1">
                    <mxGeometry x="500" y="1175" width="80" height="30" as="geometry"/>
                </mxCell>
                <mxCell id="53" value="" style="edgeStyle=none;html=1;endArrow=none;" parent="1" source="48" target="52" edge="1">
                    <mxGeometry relative="1" as="geometry">
                        <mxPoint x="590" y="1190" as="targetPoint"/>
                        <mxPoint x="470" y="1190" as="sourcePoint"/>
                    </mxGeometry>
                </mxCell>
                <mxCell id="57" style="edgeStyle=none;html=1;entryX=0.5;entryY=1;entryDx=0;entryDy=0;" parent="1" source="55" target="17" edge="1">
                    <mxGeometry relative="1" as="geometry"/>
                </mxCell>
                <mxCell id="55" value="&lt;span&gt;Le bruit attire les zombies proches de la pharmacie pendant la ruée de &lt;/span&gt;&lt;span&gt;la&lt;/span&gt;&lt;span&gt; &lt;/span&gt;&lt;span&gt;horde&lt;/span&gt;&lt;span&gt; &lt;/span&gt;&lt;span&gt;v&lt;/span&gt;&lt;span&gt;ous avez le temps d'attraper les clés et vous essayer d'ouvri&lt;/span&gt;&lt;span&gt;r&lt;/span&gt;&lt;span&gt; la porte &lt;/span&gt;&lt;span&gt;le&lt;/span&gt;&lt;span&gt; plus vite que vous &lt;/span&gt;&lt;span&gt;pouvez,&lt;/span&gt;&lt;span&gt; mais vous n'avez pas le temps les zombies vous &lt;/span&gt;&lt;span&gt;attrapent&lt;/span&gt;&lt;span&gt; et vous mourrez(vous avez les clés)&lt;/span&gt;" style="rounded=1;whiteSpace=wrap;html=1;strokeColor=#2D7600;fillColor=#60a917;fontColor=#ffffff;spacingLeft=0;spacingTop=1;" parent="1" vertex="1">
                    <mxGeometry x="675" y="1135.5" width="225" height="114.5" as="geometry"/>
                </mxCell>
                <mxCell id="60" value="Vous prenez silencieusement les clés du zombie.Privé de mobilité il n'a rien qu'il puisse faire" style="text;html=1;strokeColor=none;fillColor=none;align=center;verticalAlign=middle;whiteSpace=wrap;rounded=0;fontColor=#FFCCE6;" parent="1" vertex="1">
                    <mxGeometry x="380" y="1295" width="60" height="75" as="geometry"/>
                </mxCell>
                <mxCell id="61" value="" style="edgeStyle=none;html=1;endArrow=none;" parent="1" source="48" target="60" edge="1">
                    <mxGeometry relative="1" as="geometry">
                        <mxPoint x="410" y="1410" as="targetPoint"/>
                        <mxPoint x="410" y="1260" as="sourcePoint"/>
                    </mxGeometry>
                </mxCell>
                <mxCell id="64" style="edgeStyle=none;html=1;exitX=0.5;exitY=1;exitDx=0;exitDy=0;" parent="1" source="63" edge="1">
                    <mxGeometry relative="1" as="geometry">
                        <mxPoint x="414.66666666666674" y="1610" as="targetPoint"/>
                    </mxGeometry>
                </mxCell>
                <mxCell id="63" value="&lt;span&gt;Vous avez les clés et vous rendez compte que la pharmacie est un &lt;/span&gt;&lt;span&gt;abri&lt;/span&gt;&lt;span&gt; habité par des survivants&lt;/span&gt;" style="rounded=1;whiteSpace=wrap;html=1;strokeColor=#2D7600;fillColor=#60a917;fontColor=#ffffff;" parent="1" vertex="1">
                    <mxGeometry x="350" y="1440" width="130" height="80" as="geometry"/>
                </mxCell>
                <mxCell id="66" style="edgeStyle=none;html=1;startArrow=none;" parent="1" source="70" edge="1">
                    <mxGeometry relative="1" as="geometry">
                        <mxPoint x="790" y="1670" as="targetPoint"/>
                    </mxGeometry>
                </mxCell>
                <mxCell id="72" style="edgeStyle=none;html=1;startArrow=none;" parent="1" source="73" edge="1">
                    <mxGeometry relative="1" as="geometry">
                        <mxPoint x="415" y="1936.6666666666667" as="targetPoint"/>
                    </mxGeometry>
                </mxCell>
                <mxCell id="80" style="edgeStyle=none;html=1;" edge="1" parent="1" source="65">
                    <mxGeometry relative="1" as="geometry">
                        <mxPoint x="150" y="1670" as="targetPoint"/>
                    </mxGeometry>
                </mxCell>
                <mxCell id="65" value="Que faire?" style="rhombus;whiteSpace=wrap;html=1;strokeColor=#A50040;fillColor=#d80073;fontColor=#ffffff;" parent="1" vertex="1">
                    <mxGeometry x="357.5" y="1610" width="115" height="120" as="geometry"/>
                </mxCell>
                <mxCell id="67" value="" style="endArrow=classic;html=1;entryX=0.5;entryY=1;entryDx=0;entryDy=0;" parent="1" target="55" edge="1">
                    <mxGeometry width="50" height="50" relative="1" as="geometry">
                        <mxPoint x="780" y="1670" as="sourcePoint"/>
                        <mxPoint x="830" y="1620" as="targetPoint"/>
                    </mxGeometry>
                </mxCell>
                <mxCell id="79" style="edgeStyle=none;html=1;entryX=0;entryY=0.5;entryDx=0;entryDy=0;" edge="1" parent="1" source="68" target="70">
                    <mxGeometry relative="1" as="geometry"/>
                </mxCell>
                <mxCell id="68" value="Voler leur nourritures et médicaments" style="text;html=1;strokeColor=none;fillColor=none;align=center;verticalAlign=middle;whiteSpace=wrap;rounded=0;fontColor=#FFCCE6;" parent="1" vertex="1">
                    <mxGeometry x="570" y="1655" width="60" height="30" as="geometry"/>
                </mxCell>
                <mxCell id="69" value="" style="edgeStyle=none;html=1;endArrow=none;" parent="1" source="65" target="68" edge="1">
                    <mxGeometry relative="1" as="geometry">
                        <mxPoint x="790.0000000000002" y="1670" as="targetPoint"/>
                        <mxPoint x="472.5" y="1670" as="sourcePoint"/>
                    </mxGeometry>
                </mxCell>
                <mxCell id="70" value="Des survivants sortent de nul part et vous tuent" style="rounded=1;whiteSpace=wrap;html=1;strokeColor=#2D7600;fillColor=#60a917;fontColor=#ffffff;" parent="1" vertex="1">
                    <mxGeometry x="730" y="1640" width="120" height="60" as="geometry"/>
                </mxCell>
                <mxCell id="73" value="Ne pas les voler" style="text;html=1;strokeColor=none;fillColor=none;align=center;verticalAlign=middle;whiteSpace=wrap;rounded=0;fontColor=#FFCCE6;" parent="1" vertex="1">
                    <mxGeometry x="384" y="1795" width="60" height="30" as="geometry"/>
                </mxCell>
                <mxCell id="74" value="" style="edgeStyle=none;html=1;endArrow=none;" parent="1" source="65" target="73" edge="1">
                    <mxGeometry relative="1" as="geometry">
                        <mxPoint x="415" y="1936.666666666667" as="targetPoint"/>
                        <mxPoint x="415" y="1730" as="sourcePoint"/>
                    </mxGeometry>
                </mxCell>
                <mxCell id="76" style="edgeStyle=none;html=1;" parent="1" source="75" edge="1">
                    <mxGeometry relative="1" as="geometry">
                        <mxPoint x="415" y="2150" as="targetPoint"/>
                    </mxGeometry>
                </mxCell>
                <mxCell id="75" value="Les survivants décident de vous donner des médicaments et de la nourriture pour votre bon geste" style="rounded=1;whiteSpace=wrap;html=1;strokeColor=#2D7600;fillColor=#60a917;fontColor=#ffffff;" parent="1" vertex="1">
                    <mxGeometry x="355" y="1900" width="120" height="100" as="geometry"/>
                </mxCell>
                <mxCell id="77" value="Vous retournez dans votre camp avec des médicaments et de la nourriture.&lt;br&gt;FIN" style="rounded=1;whiteSpace=wrap;html=1;strokeColor=#2D7600;fillColor=#60a917;fontColor=#ffffff;" parent="1" vertex="1">
                    <mxGeometry x="355" y="2140" width="135" height="90" as="geometry"/>
                </mxCell>
                <mxCell id="78" value="&lt;font color=&quot;#ffcce6&quot;&gt;Genre:Horreur&lt;br&gt;L'histoire est inspirer de la serie Walking dead sur netflix.&lt;br&gt;le nom de la série sera Mort Marchante.&lt;br&gt;Les deux fonds:&lt;br&gt;&lt;/font&gt;&lt;font face=&quot;consolas, courier new, monospace&quot;&gt;&lt;span style=&quot;font-size: 14px&quot;&gt;&lt;font color=&quot;#ffcce6&quot;&gt;&lt;font style=&quot;background-color: rgb(30 , 30 , 30)&quot;&gt;#846c5b et noir&lt;br&gt;&lt;/font&gt;les boutons: sont blanc&lt;br&gt;L'état des survol des boutons de l'interface sont blanc et transparent&lt;/font&gt;&lt;br&gt;&lt;/span&gt;&lt;/font&gt;" style="text;html=1;strokeColor=none;fillColor=none;align=center;verticalAlign=middle;whiteSpace=wrap;rounded=0;" parent="1" vertex="1">
                    <mxGeometry x="10" y="-190" width="200" height="180" as="geometry"/>
                </mxCell>
                <mxCell id="84" style="edgeStyle=none;html=1;" edge="1" parent="1" source="83">
                    <mxGeometry relative="1" as="geometry">
                        <mxPoint x="90" y="1910" as="targetPoint"/>
                    </mxGeometry>
                </mxCell>
                <mxCell id="83" value="Les survivants cachés attendant a leur tour" style="rounded=1;whiteSpace=wrap;html=1;fillColor=#60a917;fontColor=#ffffff;strokeColor=#2D7600;" vertex="1" parent="1">
                    <mxGeometry x="30" y="1640" width="120" height="60" as="geometry"/>
                </mxCell>
                <mxCell id="89" style="edgeStyle=none;html=1;startArrow=none;" edge="1" parent="1" source="90">
                    <mxGeometry relative="1" as="geometry">
                        <mxPoint x="98" y="2360" as="targetPoint"/>
                    </mxGeometry>
                </mxCell>
                <mxCell id="93" style="edgeStyle=none;html=1;startArrow=none;" edge="1" parent="1" source="94">
                    <mxGeometry relative="1" as="geometry">
                        <mxPoint x="-260" y="2060" as="targetPoint"/>
                    </mxGeometry>
                </mxCell>
                <mxCell id="87" value="&lt;span&gt;Vous continuez d'attendre &lt;/span&gt;&lt;span&gt;jusqu'à ce&lt;/span&gt;&lt;span&gt; &lt;/span&gt;&lt;span&gt;qu’&lt;/span&gt;&lt;span&gt;un survivant &lt;/span&gt;&lt;span&gt;sort&lt;/span&gt;&lt;span&gt; de sa cachette &lt;/span&gt;&lt;span&gt;v&lt;/span&gt;&lt;span&gt;ous vous regarde&lt;/span&gt;&lt;span&gt;z&lt;/span&gt;&lt;span&gt; comme dans les &lt;/span&gt;&lt;span&gt;face à face&lt;/span&gt;&lt;span&gt; &lt;/span&gt;&lt;span&gt;farwest&lt;/span&gt;&lt;span&gt; et vous &lt;/span&gt;&lt;span&gt;posent&lt;/span&gt;&lt;span&gt; une &lt;/span&gt;&lt;span&gt;seule&lt;/span&gt;&lt;span&gt; question si vous l'avez bon il vous laisse vivre avec des vivres pour votre campement sinon vous connaissez &lt;/span&gt;&lt;span&gt;déjà&lt;/span&gt;&lt;span&gt; la suite&lt;br&gt;Le lait avant ou après les céréales?&lt;br&gt;QUE FAIRE?&lt;br&gt;&lt;/span&gt;" style="rhombus;whiteSpace=wrap;html=1;spacingTop=6;spacingLeft=50;spacingBottom=10;spacingRight=40;fillColor=#d80073;fontColor=#ffffff;strokeColor=#A50040;" vertex="1" parent="1">
                    <mxGeometry x="-80" y="1920" width="355" height="280" as="geometry"/>
                </mxCell>
                <mxCell id="90" value="&lt;font color=&quot;#ffcce6&quot;&gt;avant les céréales&lt;/font&gt;" style="text;html=1;strokeColor=none;fillColor=none;align=center;verticalAlign=middle;whiteSpace=wrap;rounded=0;" vertex="1" parent="1">
                    <mxGeometry x="70" y="2245" width="60" height="30" as="geometry"/>
                </mxCell>
                <mxCell id="91" value="" style="edgeStyle=none;html=1;endArrow=none;" edge="1" parent="1" source="87" target="90">
                    <mxGeometry relative="1" as="geometry">
                        <mxPoint x="98" y="2360" as="targetPoint"/>
                        <mxPoint x="97.73302700675185" y="2199.8162040510124" as="sourcePoint"/>
                    </mxGeometry>
                </mxCell>
                <mxCell id="94" value="après les céréales" style="text;html=1;strokeColor=none;fillColor=none;align=center;verticalAlign=middle;whiteSpace=wrap;rounded=0;" vertex="1" parent="1">
                    <mxGeometry x="-200" y="2045" width="60" height="30" as="geometry"/>
                </mxCell>
                <mxCell id="95" value="" style="edgeStyle=none;html=1;endArrow=none;" edge="1" parent="1" source="87" target="94">
                    <mxGeometry relative="1" as="geometry">
                        <mxPoint x="-260" y="2060" as="targetPoint"/>
                        <mxPoint x="-80" y="2060" as="sourcePoint"/>
                    </mxGeometry>
                </mxCell>
                <mxCell id="98" value="Les survivants vous serrent la main et vous donnent les médicaments et la nourriture.&lt;br&gt;FIN" style="rounded=1;whiteSpace=wrap;html=1;fillColor=#60a917;fontColor=#ffffff;strokeColor=#2D7600;" vertex="1" parent="1">
                    <mxGeometry x="11.5" y="2360" width="172" height="60" as="geometry"/>
                </mxCell>
                <mxCell id="100" style="edgeStyle=none;html=1;startArrow=none;" edge="1" parent="1" source="103">
                    <mxGeometry relative="1" as="geometry">
                        <mxPoint x="-400" y="2370" as="targetPoint"/>
                    </mxGeometry>
                </mxCell>
                <mxCell id="99" value="&lt;span&gt;M&lt;/span&gt;&lt;span&gt;auvaise &lt;/span&gt;&lt;span&gt;réponse,&lt;/span&gt;&lt;span&gt; les survivants vous &lt;/span&gt;&lt;span&gt;laissent&lt;/span&gt;&lt;span&gt; une dernièr&lt;/span&gt;&lt;span&gt;e&lt;/span&gt;&lt;span&gt; chance.Qui vient avant la poule ou &lt;/span&gt;&lt;span&gt;l'&lt;/span&gt;&lt;span&gt;œuf&lt;/span&gt;&lt;span&gt;?&lt;/span&gt;" style="rhombus;whiteSpace=wrap;html=1;fillColor=#d80073;fontColor=#ffffff;strokeColor=#A50040;spacingLeft=10;spacingRight=10;" vertex="1" parent="1">
                    <mxGeometry x="-530" y="1945" width="270" height="230" as="geometry"/>
                </mxCell>
                <mxCell id="102" value="" style="endArrow=classic;html=1;startArrow=none;" edge="1" parent="1" source="105">
                    <mxGeometry width="50" height="50" relative="1" as="geometry">
                        <mxPoint x="-450" y="2130" as="sourcePoint"/>
                        <mxPoint x="-470" y="2370" as="targetPoint"/>
                        <Array as="points"/>
                    </mxGeometry>
                </mxCell>
                <mxCell id="103" value="La poule?" style="text;html=1;strokeColor=none;fillColor=none;align=center;verticalAlign=middle;whiteSpace=wrap;rounded=0;fontColor=#FFCCE6;" vertex="1" parent="1">
                    <mxGeometry x="-430" y="2230" width="60" height="30" as="geometry"/>
                </mxCell>
                <mxCell id="104" value="" style="edgeStyle=none;html=1;endArrow=none;" edge="1" parent="1" source="99" target="103">
                    <mxGeometry relative="1" as="geometry">
                        <mxPoint x="-395" y="2340" as="targetPoint"/>
                        <mxPoint x="-395" y="2175" as="sourcePoint"/>
                    </mxGeometry>
                </mxCell>
                <mxCell id="105" value="&lt;font color=&quot;#ffcce6&quot;&gt;l'oeuf?&lt;/font&gt;" style="text;html=1;strokeColor=none;fillColor=none;align=center;verticalAlign=middle;whiteSpace=wrap;rounded=0;" vertex="1" parent="1">
                    <mxGeometry x="-490" y="2225" width="60" height="30" as="geometry"/>
                </mxCell>
                <mxCell id="106" value="" style="endArrow=none;html=1;" edge="1" parent="1" target="105">
                    <mxGeometry width="50" height="50" relative="1" as="geometry">
                        <mxPoint x="-450" y="2130" as="sourcePoint"/>
                        <mxPoint x="-470" y="2350" as="targetPoint"/>
                        <Array as="points">
                            <mxPoint x="-460" y="2170"/>
                        </Array>
                    </mxGeometry>
                </mxCell>
                <mxCell id="107" value="Les survivants ne connaissent pas la réponse plus que vous et donnent et des médicaments et de la nourriture" style="rounded=1;whiteSpace=wrap;html=1;fillColor=#60a917;fontColor=#ffffff;strokeColor=#2D7600;" vertex="1" parent="1">
                    <mxGeometry x="-520" y="2370" width="190" height="60" as="geometry"/>
                </mxCell>
            </root>
        </mxGraphModel>
    </diagram>
</mxfile>